<svg id="visual" viewBox="0 0 900 600" width="900" height="600" xmlns="http://www.w3.org/2000/svg" xmlns:xlink="http://www.w3.org/1999/xlink" version="1.1"><rect x="0" y="0" width="900" height="600" fill="#05131e"></rect><defs><linearGradient id="grad1_0" x1="33.3%" y1="0%" x2="100%" y2="100%"><stop offset="20%" stop-color="#05131e" stop-opacity="1"></stop><stop offset="80%" stop-color="#05131e" stop-opacity="1"></stop></linearGradient></defs><defs><linearGradient id="grad2_0" x1="0%" y1="0%" x2="66.7%" y2="100%"><stop offset="20%" stop-color="#05131e" stop-opacity="1"></stop><stop offset="80%" stop-color="#05131e" stop-opacity="1"></stop></linearGradient></defs><g transform="translate(900, 0)"><path d="M0 216.3C-26.6 211.4 -53.1 206.4 -81.9 197.7C-110.6 189 -141.6 176.5 -153 153C-164.4 129.5 -156.2 95.1 -163.5 67.7C-170.8 40.4 -193.6 20.2 -216.3 0L0 0Z" fill="#FBAE3C"></path></g><g transform="translate(0, 600)"><path d="M0 -216.3C30 -213.8 60 -211.2 81.5 -196.8C103 -182.3 115.9 -156 136.5 -136.5C157 -117 185.3 -104.4 199.9 -82.8C214.5 -61.2 215.4 -30.6 216.3 0L0 0Z" fill="#FBAE3C"></path></g></svg>